<svg width="620" height="250" viewBox="0 0 620 250" fill="none" xmlns="http://www.w3.org/2000/svg">
<mask id="mask0" mask-type="alpha" maskUnits="userSpaceOnUse" x="0" y="0" width="620" height="250">
<rect width="620" height="250" fill="white"/>
</mask>
<g mask="url(#mask0)">
<g opacity="0.15">
<path d="M334.135 -99.5272L335.419 -100.826V-99V47.6543C374.575 77.4068 413.117 132.654 422.908 191.908L422.999 192.46L422.495 192.705C316.093 244.34 257.135 279.452 214.98 326.252C172.823 373.056 147.422 431.6 108.29 530.276L108.102 530.75H107.593H15.0707H14.5613L14.3736 530.276C10.2003 519.753 6.23584 509.686 2.43765 500.042C-29.3935 419.215 -49.5477 368.038 -83.0921 326.219C-120.615 279.441 -174.934 244.335 -281.327 192.705L-281.918 192.418L-281.712 191.795C-262.187 132.713 -233.409 77.4463 -194.25 47.6545V-99V-100.826L-192.967 -99.5272L-77.1381 17.6806H218.306L334.135 -99.5272Z" fill="#C4C4C4" stroke="white" stroke-width="1.5"/>
<path d="M320.393 -61.4478V60.5969C357.402 88.7611 385.159 116.925 394.411 173.254C218.619 248.358 181.61 304.686 107.592 492.447H15.0703C-58.9474 304.686 -68.1996 248.358 -253.244 173.254C-234.739 116.925 -216.235 88.7611 -179.226 60.5969V-61.4478L-86.704 32.4328H227.871L320.393 -61.4478Z" fill="white"/>
<path d="M320.393 -61.4478V60.5969C357.402 88.7611 385.159 116.925 394.411 173.254C209.367 229.582 153.853 304.686 79.8357 492.447H42.8269C-31.1908 304.686 -68.1996 229.582 -253.244 173.254C-234.739 116.925 -216.235 88.7611 -179.226 60.5969V-61.4478L-86.704 32.4328H227.871L320.393 -61.4478Z" fill="#C4C4C4"/>
<path d="M320.393 -61.4478V60.5969C357.402 88.7611 385.159 116.925 394.411 173.254C301.889 201.418 274.132 220.194 237.123 248.358C61.3313 -33.2836 -216.235 79.373 -253.244 173.254C-234.739 116.925 -216.235 88.7611 -179.226 60.5969V-61.4478L-86.704 32.4328H227.871L320.393 -61.4478Z" fill="white"/>
</g>
</g>
</svg>
