<svg width="1239" height="768" viewBox="0 0 1239 768" fill="none" xmlns="http://www.w3.org/2000/svg">
<g clip-path="url(#clip0)">
<mask id="mask0" mask-type="alpha" maskUnits="userSpaceOnUse" x="0" y="0" width="1748" height="768">
<rect width="1747" height="768" transform="matrix(-1 0 0 1 1747 0)" fill="white"/>
</mask>
<g mask="url(#mask0)">
<g opacity="0.1">
<path d="M862.004 -695.031L863.287 -696.329V-694.503V-61.9326C1031.75 65.6345 1197.84 303.363 1239.96 558.245L1240.05 558.798L1239.55 559.042C781.495 781.326 527.273 932.658 345.442 1134.53C163.608 1336.4 54.1182 1588.86 -114.316 2013.59L-114.504 2014.06H-115.013H-513.317H-513.826L-514.014 2013.59C-531.986 1968.27 -549.061 1924.91 -565.421 1883.37C-702.401 1535.53 -789.312 1314.83 -933.969 1134.5C-1095.88 932.647 -1330.17 781.322 -1788.21 559.042L-1788.81 558.755L-1788.6 558.132C-1704.42 303.423 -1580.42 65.6742 -1411.96 -61.9325V-694.503V-696.329L-1410.67 -695.031L-911.307 -189.72H362.638L862.004 -695.031Z" fill="#C4C4C4" stroke="white" stroke-width="1.5"/>
<path d="M801.083 -532.844V-7.44751C960.404 113.798 1079.9 235.043 1119.73 477.534C362.949 800.855 203.628 1043.35 -115.015 1851.65H-513.318C-831.961 1043.35 -871.791 800.855 -1668.4 477.534C-1588.74 235.043 -1509.08 113.798 -1349.76 -7.44751V-532.844L-951.452 -128.693H402.779L801.083 -532.844Z" fill="white"/>
<path d="M801.083 -532.844V-7.44751C960.404 113.798 1079.9 235.043 1119.73 477.534C323.119 720.025 84.1367 1043.35 -234.506 1851.65H-393.827C-712.47 1043.35 -871.791 720.025 -1668.4 477.534C-1588.74 235.043 -1509.08 113.798 -1349.76 -7.44751V-532.844L-951.452 -128.693H402.779L801.083 -532.844Z" fill="#C4C4C4"/>
<path d="M801.083 -532.844V-7.44739C960.404 113.798 1079.9 235.043 1119.73 477.534C721.422 598.78 601.931 679.61 442.61 800.855C-314.167 -411.599 -1509.08 73.3829 -1668.4 477.534C-1588.74 235.043 -1509.08 113.798 -1349.76 -7.44739V-532.844L-951.452 -128.693H402.779L801.083 -532.844Z" fill="white"/>
</g>
</g>
</g>
<defs>
<clipPath id="clip0">
<rect width="1239" height="768" fill="white" transform="translate(0.000244141)"/>
</clipPath>
</defs>
</svg>
