<svg width="476" height="392" viewBox="0 0 476 392" fill="none" xmlns="http://www.w3.org/2000/svg">
<mask id="mask0" mask-type="alpha" maskUnits="userSpaceOnUse" x="0" y="0" width="476" height="393">
<rect width="476" height="392" transform="matrix(-1 0 0 1 476 0.000366211)" fill="white"/>
</mask>
<g mask="url(#mask0)">
<g opacity="0.15">
<path d="M490.608 -0.526817L491.891 -1.82555V0.000366211V115.614C522.788 139.118 553.181 182.708 560.907 229.465L560.999 230.017L560.495 230.262C476.556 270.996 430.071 298.683 396.84 335.578C363.605 372.475 343.576 418.632 312.704 496.48L312.516 496.953H312.007H239.018H238.509L238.321 496.48C235.029 488.18 231.902 480.24 228.907 472.633C203.792 408.862 187.903 368.515 161.456 335.545C131.879 298.672 89.0569 270.991 5.12762 230.262L4.53693 229.975L4.74298 229.352C20.1382 182.767 42.8324 139.157 73.7314 115.614V0.000366211V-1.82555L75.0148 -0.526817L166.343 91.8886H399.28L490.608 -0.526817Z" fill="#C4C4C4" stroke="white" stroke-width="1.5"/>
<path d="M479.879 29.6245V125.903C509.074 148.121 530.971 170.339 538.27 214.775C399.592 274.023 370.396 318.459 312.006 466.579H239.017C180.626 318.459 173.327 274.023 27.3505 214.775C41.9482 170.339 56.5459 148.121 85.7412 125.903V29.6245L158.73 103.685H406.891L479.879 29.6245Z" fill="white"/>
<path d="M479.879 29.6245V125.903C509.074 148.121 530.971 170.339 538.27 214.775C392.293 259.211 348.5 318.459 290.109 466.579H260.914C202.523 318.459 173.327 259.211 27.3505 214.775C41.9482 170.339 56.5459 148.121 85.7412 125.903V29.6245L158.73 103.685H406.891L479.879 29.6245Z" fill="#C4C4C4"/>
<path d="M479.879 29.6245V125.903C509.074 148.121 530.971 170.339 538.27 214.775C465.281 236.993 443.385 251.805 414.189 274.023C275.511 51.8425 56.5459 140.715 27.3505 214.775C41.9482 170.339 56.5459 148.121 85.7412 125.903V29.6245L158.73 103.685H406.891L479.879 29.6245Z" fill="white"/>
</g>
</g>
</svg>
