<svg width="582" height="715" viewBox="0 0 582 715" fill="none" xmlns="http://www.w3.org/2000/svg">
<mask id="mask0" mask-type="alpha" maskUnits="userSpaceOnUse" x="0" y="0" width="582" height="715">
<rect width="581.884" height="715" fill="white"/>
</mask>
<g mask="url(#mask0)">
<g opacity="0.15">
<path d="M-105.725 11.4294L-107.008 10.1306V11.9565V175.918C-150.77 209.155 -193.856 270.902 -204.798 337.123L-204.889 337.676L-204.385 337.92C-85.4582 395.634 -19.5447 434.885 27.5848 487.209C74.7173 539.535 103.113 604.987 146.85 715.276L147.038 715.75H147.548H250.961H251.47L251.658 715.276C256.323 703.514 260.754 692.261 265 681.48C300.576 591.143 323.108 533.928 360.61 487.176C402.564 434.874 463.294 395.629 582.211 337.92L582.802 337.634L582.596 337.01C560.768 270.961 528.599 209.194 484.834 175.918V11.9565V10.1306L483.551 11.4294L354.061 142.461H23.7648L-105.725 11.4294Z" fill="#C4C4C4" stroke="white" stroke-width="1.5"/>
<path d="M-90.3032 53.9292V190.341C-131.669 221.82 -162.693 253.3 -173.034 316.259C23.4516 400.204 64.817 463.163 147.548 673.027H250.961C333.692 463.163 344.033 400.204 550.86 316.259C530.177 253.3 509.495 221.82 468.129 190.341V53.9292L364.716 158.861H13.1102L-90.3032 53.9292Z" fill="white"/>
<path d="M-90.3032 53.9292V190.341C-131.669 221.82 -162.693 253.3 -173.034 316.259C33.7929 379.218 95.841 463.163 178.572 673.027H219.937C302.668 463.163 344.033 379.218 550.86 316.259C530.177 253.3 509.495 221.82 468.129 190.341V53.9292L364.716 158.861H13.1102L-90.3032 53.9292Z" fill="#C4C4C4"/>
<path d="M-90.3032 53.9292V190.341C-131.669 221.82 -162.693 253.3 -173.034 316.259C-69.6205 347.738 -38.5965 368.725 2.76889 400.204C199.254 85.4087 509.495 211.327 550.86 316.259C530.177 253.3 509.495 221.82 468.129 190.341V53.9292L364.716 158.861H13.1102L-90.3032 53.9292Z" fill="white"/>
</g>
</g>
</svg>
